name Visual3d_SIMM_input.mot
datacolumns 42
datarows 17
range 0.760000 0.920000
endheader
time	pelvis_tx	pelvis_ty	pelvis_tz	pelvis_tilt	pelvis_list	pelvis_rotation	hip_flexion_r	hip_adduction_r	hip_rotation_r	knee_angle_r	ankle_angle_r	subtalar_angle_r	mtp_angle_r	hip_flexion_l	hip_adduction_l	hip_rotation_l	knee_angle_l	ankle_angle_l	subtalar_angle_l	mtp_angle_l	lumbar_extension	lumbar_bending	lumbar_rotation	ground_force_vx	ground_force_vy	ground_force_vz	ground_force_px	ground_force_py	ground_force_pz	ground_force_vx	ground_force_vy	ground_force_vz	ground_force_px	ground_force_py	ground_force_pz	ground_torque_x	ground_torque_y	ground_torque_z	ground_torque_x	ground_torque_y	ground_torque_z
0.760000	0.208210	0.592239	0.435288	-5.444658	-20.834173	78.053673	68.178894	4.559244	-6.306913	-76.988219	25.222550	-0.000000	0.000000	19.437276	5.453661	-9.822635	-65.067415	33.422964	-0.000000	0.000000	19.055970	-0.924260	-3.027737	-6.549723	199.322601	20.079124	0.251972	-0.002549	0.320376	0.000000	0.000000	0.000000	0.000000	0.000000	0.000000	-0.000552	-0.079752	0.001419	0.000000	0.000000	0.000000
0.770000	0.210252	0.594077	0.423435	-4.621076	-20.040789	78.283440	65.984217	5.353792	-6.384267	-77.276446	25.708993	-0.000000	0.000000	18.743024	4.445015	-9.231537	-66.419478	29.894505	-0.000000	0.000000	18.298137	-0.185320	-3.323324	-6.793566	218.081284	22.228874	0.251355	-0.003173	0.319832	0.000000	0.000000	0.000000	0.000000	0.000000	0.000000	-0.000248	-0.035773	0.000636	0.000000	0.000000	0.000000
0.780000	0.212255	0.595624	0.411813	-3.872525	-19.344862	78.515175	63.979536	6.087164	-6.446814	-77.646588	26.222577	-0.000000	0.000000	18.278276	3.472611	-8.614328	-67.992641	26.528513	-0.000000	0.000000	17.622057	0.492029	-3.615491	-6.870276	234.411270	23.852280	0.250641	-0.003580	0.319348	0.000000	0.000000	0.000000	0.000000	0.000000	0.000000	0.000051	0.007325	-0.000130	0.000000	0.000000	0.000000
0.790000	0.214165	0.596737	0.400577	-3.249024	-18.802792	78.750099	62.265200	6.706658	-6.489751	-78.114927	26.751863	-0.000000	0.000000	18.190740	2.578215	-7.982536	-69.827660	23.506829	-0.000000	0.000000	17.074967	1.062297	-3.888972	-6.956590	248.635025	24.637358	0.249869	-0.003785	0.318866	0.000000	0.000000	0.000000	0.000000	0.000000	0.000000	0.000242	0.035007	-0.000623	0.000000	0.000000	0.000000
0.800000	0.215940	0.597400	0.389803	-2.764837	-18.421761	78.996033	60.856972	7.184369	-6.514594	-78.674934	27.281408	-0.000000	0.000000	18.536597	1.785616	-7.335371	-71.925348	20.972210	-0.000000	0.000000	16.658461	1.507742	-4.134904	-7.205673	261.052246	24.484406	0.249067	-0.003838	0.318359	0.000000	0.000000	0.000000	0.000000	0.000000	0.000000	0.000259	0.037376	-0.000665	0.000000	0.000000	0.000000
0.810000	0.217559	0.597675	0.379509	-2.417289	-18.178804	79.259476	59.719185	7.508893	-6.522295	-79.308291	27.795711	-0.000000	0.000000	19.306763	1.111002	-6.670741	-74.251669	19.018517	-0.000000	0.000000	16.349477	1.824286	-4.346337	-7.669677	271.820038	23.466484	0.248256	-0.003794	0.317823	0.000000	0.000000	0.000000	0.000000	0.000000	0.000000	0.000088	0.012667	-0.000225	0.000000	0.000000	0.000000
0.820000	0.219017	0.597658	0.369668	-2.194075	-18.040396	79.542961	58.795020	7.682235	-6.515520	-79.991460	28.280709	-0.000000	0.000000	20.456874	0.560905	-5.992212	-76.749476	17.684992	-0.000000	0.000000	16.118837	2.017327	-4.516654	-8.277849	280.937500	21.745359	0.247461	-0.003703	0.317266	0.000000	0.000000	0.000000	0.000000	0.000000	0.000000	-0.000226	-0.032618	0.000580	0.000000	0.000000	0.000000
0.830000	0.220332	0.597454	0.360227	-2.071583	-17.973991	79.846077	58.023215	7.721218	-6.504327	-80.697196	28.723346	-0.000000	0.000000	21.927800	0.123398	-5.311412	-79.349743	16.954886	-0.000000	0.000000	15.940318	2.104117	-4.639762	-8.890066	288.347900	19.551874	0.246706	-0.003598	0.316701	0.000000	0.000000	0.000000	0.000000	0.000000	0.000000	-0.000597	-0.086175	0.001533	0.000000	0.000000	0.000000
0.840000	0.221543	0.597158	0.351118	-2.017636	-17.952896	80.163849	57.346924	7.657523	-6.503881	-81.396437	29.111523	-0.000000	0.000000	23.657938	-0.233284	-4.650304	-81.978908	16.761228	-0.000000	0.000000	15.793802	2.111340	-4.708144	-9.360327	294.021301	17.120405	0.246013	-0.003500	0.316140	0.000000	0.000000	0.000000	0.000000	0.000000	0.000000	-0.000932	-0.134509	0.002393	0.000000	0.000000	0.000000
0.850000	0.222699	0.596852	0.342270	-1.999801	-17.957123	80.486305	56.718707	7.529957	-6.527872	-82.062121	29.435865	-0.000000	0.000000	25.590296	-0.549075	-4.037724	-84.562796	17.001475	-0.000000	0.000000	15.665604	2.067975	-4.713915	-9.590538	298.014587	14.625289	0.245388	-0.003419	0.315592	0.000000	0.000000	0.000000	0.000000	0.000000	0.000000	-0.001159	-0.167300	0.002976	0.000000	0.000000	0.000000
0.860000	0.223835	0.596595	0.333617	-1.990539	-17.972439	80.805984	56.101500	7.370391	-6.588653	-82.672323	29.692755	-0.000000	0.000000	27.676415	-0.855881	-3.495588	-87.030434	17.558562	-0.000000	0.000000	15.546945	2.001227	-4.658347	-9.555501	300.493286	12.152346	0.244827	-0.003357	0.315062	0.000000	0.000000	0.000000	0.000000	0.000000	0.000000	-0.001248	-0.180139	0.003204	0.000000	0.000000	0.000000
0.870000	0.224951	0.596434	0.325098	-1.968293	-17.988739	81.124641	55.467328	7.195362	-6.699393	-83.211382	29.885674	-0.000000	0.000000	29.877201	-1.168998	-3.028833	-89.318083	18.321214	-0.000000	0.000000	15.431549	1.934777	-4.558686	-9.298210	301.732086	9.713758	0.244317	-0.003312	0.314555	0.000000	0.000000	0.000000	0.000000	0.000000	0.000000	-0.001209	-0.174591	0.003106	0.000000	0.000000	0.000000
0.880000	0.226031	0.596397	0.316665	-1.919875	-17.999130	81.449486	54.796811	7.008907	-6.869392	-83.669899	30.023005	-0.000000	0.000000	32.161957	-1.488764	-2.631356	-91.371252	19.196614	-0.000000	0.000000	15.314539	1.884878	-4.440566	-8.904840	302.054291	7.279510	0.243848	-0.003279	0.314077	0.000000	0.000000	0.000000	0.000000	0.000000	0.000000	-0.001083	-0.156347	0.002781	0.000000	0.000000	0.000000
0.890000	0.227060	0.596497	0.308283	-1.843595	-18.000427	81.783951	54.080372	6.809626	-7.096894	-84.044433	30.114342	-0.000000	0.000000	34.507188	-1.806690	-2.299769	-93.144943	20.114829	-0.000000	0.000000	15.193486	1.857036	-4.322896	-8.469911	301.770294	4.817259	0.243415	-0.003256	0.313634	0.000000	0.000000	0.000000	0.000000	0.000000	0.000000	-0.000920	-0.132796	0.002362	0.000000	0.000000	0.000000
0.900000	0.228035	0.596729	0.299928	-1.751767	-17.994186	82.121452	53.319482	6.593200	-7.365358	-84.337639	30.168464	-0.000000	0.000000	36.895633	-2.108002	-2.042463	-94.602532	21.028078	-0.000000	0.000000	15.070232	1.844510	-4.209044	-8.070953	301.124390	2.313091	0.243018	-0.003243	0.313232	0.000000	0.000000	0.000000	0.000000	0.000000	0.000000	-0.000771	-0.111290	0.001980	0.000000	0.000000	0.000000
0.910000	0.228957	0.597078	0.291587	-1.668732	-17.986740	82.446960	52.525702	6.351585	-7.646844	-84.557749	30.193165	-0.000000	0.000000	39.315218	-2.372199	-1.878281	-95.715389	21.907135	-0.000000	0.000000	14.951212	1.830201	-4.090309	-7.756540	300.278748	-0.228319	0.242657	-0.003236	0.312866	0.000000	0.000000	0.000000	0.000000	0.000000	0.000000	-0.000671	-0.096924	0.001724	0.000000	0.000000	0.000000
0.920000	0.229830	0.597520	0.283249	-1.615929	-17.987366	82.746147	51.714535	6.079339	-7.916212	-84.713361	30.194228	-0.000000	0.000000	41.757174	-2.583689	-1.824429	-96.465528	22.736510	-0.000000	0.000000	14.844591	1.799092	-3.957254	-7.544417	299.314667	-2.792931	0.242330	-0.003235	0.312533	0.000000	0.000000	0.000000	0.000000	0.000000	0.000000	-0.000631	-0.091087	0.001620	0.000000	0.000000	0.000000
